<svg width="191" height="32" viewBox="0 0 191 32" fill="none" xmlns="http://www.w3.org/2000/svg">
<g clip-path="url(#clip0_819_2409)">
<path fill-rule="evenodd" clip-rule="evenodd" d="M16.0979 32V25.8036C22.7129 25.8036 27.7985 19.3032 25.2748 12.3845C24.3571 9.83756 22.2923 7.78478 19.7304 6.87243C12.7713 4.36347 6.23268 9.45741 6.23268 15.9959H0C0 5.54192 10.1711 -2.63119 21.1835 0.790111C26.0013 2.27268 29.8251 6.11214 31.3546 10.902C34.7959 21.8881 26.6131 32 16.0979 32Z" fill="#0069FF"/>
<path fill-rule="evenodd" clip-rule="evenodd" d="M16.0968 25.8415H9.90234V19.6831H16.0968V25.8415Z" fill="#0069FF"/>
<path fill-rule="evenodd" clip-rule="evenodd" d="M9.90271 30.5936H5.12305V25.8418H9.90271V30.5936Z" fill="#0069FF"/>
<path fill-rule="evenodd" clip-rule="evenodd" d="M5.12428 25.8417H1.10938V21.8882H5.08605V25.8417H5.12428Z" fill="#0069FF"/>
<path fill-rule="evenodd" clip-rule="evenodd" d="M57.2423 9.30503C55.4069 8.05055 53.1127 7.4043 50.4361 7.4043H44.624V25.8033H50.4361C53.1127 25.8033 55.4069 25.1191 57.2423 23.7886C58.2365 23.0663 59.0395 22.0779 59.5748 20.8235C60.1101 19.569 60.416 18.1244 60.416 16.4898C60.416 14.8552 60.1484 13.4106 59.5748 12.1942C59.0395 10.9397 58.2747 9.95127 57.2423 9.30503ZM48.0288 10.4836H49.8642C51.8908 10.4836 53.5733 10.8638 54.8351 11.6621C56.2499 12.4984 56.9764 14.133 56.9764 16.4519C56.9764 18.8468 56.2499 20.5195 54.8351 21.4318C53.6115 22.2301 51.9673 22.6483 49.9025 22.6483H48.0671V10.4836H48.0288Z" fill="#0069FF"/>
<path fill-rule="evenodd" clip-rule="evenodd" d="M64.508 7.13867C63.9345 7.13867 63.4756 7.32874 63.0932 7.70888C62.7109 8.08903 62.4814 8.5452 62.4814 9.11542C62.4814 9.68564 62.6726 10.1418 63.055 10.5599C63.4374 10.9401 63.9345 11.1301 64.508 11.1301C65.0816 11.1301 65.5404 10.9401 65.961 10.5599C66.3434 10.1798 66.5346 9.68564 66.5346 9.11542C66.5346 8.5452 66.3434 8.08903 65.961 7.70888C65.5404 7.36675 65.0433 7.13867 64.508 7.13867Z" fill="#0069FF"/>
<path d="M66.1136 12.8027H62.8252V25.7656H66.1136V12.8027Z" fill="#0069FF"/>
<path fill-rule="evenodd" clip-rule="evenodd" d="M78.0025 13.9051C77.0084 13.0308 75.8995 12.5366 74.7141 12.5366C72.917 12.5366 71.3875 13.1448 70.2404 14.3993C69.055 15.6158 68.4814 17.1743 68.4814 19.0371C68.4814 20.8617 69.055 22.4203 70.2021 23.6748C71.3492 24.8913 72.8787 25.4995 74.6759 25.4995C75.9377 25.4995 77.0084 25.1574 77.9261 24.4731V24.7772C77.9261 25.8416 77.6202 26.678 77.0848 27.2482C76.5113 27.8184 75.7083 28.1225 74.7524 28.1225C73.2229 28.1225 72.3052 27.5143 71.1198 25.9937L68.9021 28.1225L68.9785 28.1985C69.4756 28.8828 70.2021 29.5291 71.1581 30.1373C72.114 30.7455 73.3758 31.0876 74.7906 31.0876C76.7407 31.0876 78.3084 30.4794 79.4555 29.301C80.6027 28.1225 81.2145 26.5259 81.2145 24.5872V12.8027H78.0025V13.9051ZM77.1239 21.5461C76.5503 22.1924 75.8238 22.4965 74.8679 22.4965C73.9119 22.4965 73.1854 22.1924 72.6501 21.5461C72.0765 20.8999 71.8089 20.0636 71.8089 18.9992C71.8089 17.9347 72.0765 17.0984 72.6501 16.4522C73.2237 15.8059 73.9502 15.5018 74.8679 15.5018C75.8238 15.5018 76.5503 15.8059 77.1239 16.4522C77.6974 17.0984 77.9651 17.9728 77.9651 18.9992C78.0033 20.0636 77.6974 20.8999 77.1239 21.5461Z" fill="#0069FF"/>
<path d="M87.2952 12.8027H84.0068V25.7656H87.2952V12.8027Z" fill="#0069FF"/>
<path fill-rule="evenodd" clip-rule="evenodd" d="M85.6916 7.13867C85.1181 7.13867 84.6592 7.32874 84.2768 7.70888C83.8945 8.08903 83.665 8.5452 83.665 9.11542C83.665 9.68564 83.8562 10.1418 84.2386 10.5599C84.621 10.9401 85.1181 11.1301 85.6916 11.1301C86.2652 11.1301 86.724 10.9401 87.1446 10.5599C87.527 10.1798 87.7182 9.68564 87.7182 9.11542C87.7182 8.5452 87.527 8.08903 87.1446 7.70888C86.724 7.36675 86.2652 7.13867 85.6916 7.13867Z" fill="#0069FF"/>
<path fill-rule="evenodd" clip-rule="evenodd" d="M94.485 9.30518H91.273V12.8025H89.3994V15.7676H91.273V21.1277C91.273 22.8003 91.6172 24.0168 92.2672 24.701C92.9555 25.3853 94.1408 25.7654 95.785 25.7654C96.3204 25.7654 96.8557 25.7654 97.391 25.7274H97.544V22.7623L96.4351 22.8383C95.6703 22.8383 95.135 22.6863 94.8673 22.4202C94.5997 22.1541 94.485 21.5839 94.485 20.7095V15.8057H97.544V12.8405H94.485V9.30518Z" fill="#0069FF"/>
<path fill-rule="evenodd" clip-rule="evenodd" d="M112.915 7.3667H116.203V25.7657H112.915V7.3667Z" fill="#0069FF"/>
<path fill-rule="evenodd" clip-rule="evenodd" d="M149.279 21.1279C148.705 21.7741 148.093 22.3443 147.634 22.6484C147.176 22.9525 146.602 23.0666 145.952 23.0666C144.996 23.0666 144.193 22.7245 143.581 22.0022C142.969 21.2799 142.625 20.3676 142.625 19.2651C142.625 18.1627 142.931 17.2504 143.543 16.5281C144.155 15.8058 144.958 15.4637 145.914 15.4637C146.984 15.4637 148.093 16.1099 149.049 17.2504L151.229 15.1976C149.814 13.3729 148.017 12.5366 145.875 12.5366C144.078 12.5366 142.511 13.1828 141.249 14.4753C139.987 15.7678 139.337 17.3644 139.337 19.3032C139.337 21.2419 139.987 22.8765 141.249 24.131C142.511 25.4235 144.078 26.0697 145.875 26.0697C148.246 26.0697 150.158 25.0433 151.458 23.1806L149.279 21.1279Z" fill="#0069FF"/>
<path fill-rule="evenodd" clip-rule="evenodd" d="M162.738 14.6273C162.279 13.9811 161.629 13.4489 160.864 13.0688C160.099 12.6886 159.181 12.4985 158.149 12.4985C156.314 12.4985 154.822 13.1828 153.714 14.4753C152.605 15.8058 152.069 17.4404 152.069 19.3411C152.069 21.3179 152.681 22.9145 153.866 24.169C155.052 25.3854 156.658 26.0317 158.608 26.0317C160.826 26.0317 162.623 25.1574 163.999 23.4087L164.076 23.3327L161.935 21.2799C161.743 21.508 161.437 21.7741 161.208 22.0402C160.902 22.3443 160.596 22.5724 160.252 22.7244C159.755 22.9525 159.22 23.1046 158.608 23.1046C157.69 23.1046 156.964 22.8385 156.39 22.3063C155.855 21.8121 155.549 21.1658 155.472 20.3295H164.152L164.191 19.1511C164.191 18.3148 164.076 17.5164 163.846 16.7562C163.541 15.9579 163.196 15.2736 162.738 14.6273ZM155.588 17.6686C155.741 17.0604 156.046 16.5282 156.429 16.148C156.888 15.7299 157.461 15.5018 158.15 15.5018C158.953 15.5018 159.564 15.7299 159.985 16.1861C160.367 16.6042 160.597 17.0984 160.635 17.7066H155.588V17.6686Z" fill="#0069FF"/>
<path fill-rule="evenodd" clip-rule="evenodd" d="M175.319 13.7911C174.325 12.9547 172.949 12.5366 171.228 12.5366C170.119 12.5366 169.125 12.7647 168.207 13.2208C167.366 13.639 166.525 14.3613 165.989 15.3116L166.028 15.3496L168.131 17.3644C169.01 15.9959 169.966 15.5017 171.228 15.5017C171.916 15.5017 172.49 15.6918 172.91 16.0339C173.331 16.376 173.56 16.8322 173.56 17.4404V18.0867C172.757 17.8586 171.954 17.7065 171.151 17.7065C169.507 17.7065 168.207 18.0867 167.213 18.847C166.219 19.6073 165.722 20.7097 165.722 22.0782C165.722 23.2947 166.142 24.2831 166.984 25.0053C167.825 25.7276 168.895 26.0697 170.157 26.0697C171.419 26.0697 172.566 25.5755 173.637 24.7012V25.7656H176.849V17.4404C176.81 15.8438 176.313 14.6274 175.319 13.7911ZM169.506 20.8236C169.889 20.5575 170.386 20.4435 171.074 20.4435C171.877 20.4435 172.718 20.5956 173.559 20.8997V22.1542C172.833 22.8004 171.877 23.1425 170.73 23.1425C170.156 23.1425 169.736 23.0285 169.43 22.7624C169.124 22.5343 168.971 22.2302 168.971 21.812C168.971 21.3939 169.124 21.0517 169.506 20.8236Z" fill="#0069FF"/>
<path fill-rule="evenodd" clip-rule="evenodd" d="M189.428 14.0191C188.51 12.9927 187.248 12.4985 185.604 12.4985C184.304 12.4985 183.234 12.8787 182.469 13.601V12.8027H179.257V25.7656H182.545V18.6189C182.545 17.6305 182.775 16.8702 183.234 16.3C183.692 15.7298 184.342 15.4637 185.184 15.4637C185.91 15.4637 186.484 15.6918 186.904 16.1859C187.325 16.6801 187.516 17.3644 187.516 18.2387V25.7276H190.804V18.2387C190.804 16.452 190.346 15.0455 189.428 14.0191Z" fill="#0069FF"/>
<path fill-rule="evenodd" clip-rule="evenodd" d="M108.788 13.7911C107.794 12.9547 106.417 12.5366 104.697 12.5366C103.588 12.5366 102.594 12.7647 101.676 13.2208C100.835 13.639 99.9934 14.3613 99.4581 15.3116L99.4963 15.3496L101.599 17.3644C102.479 15.9959 103.435 15.5017 104.697 15.5017C105.385 15.5017 105.958 15.6918 106.379 16.0339C106.8 16.376 107.029 16.8322 107.029 17.4404V18.0867C106.226 17.8586 105.423 17.7065 104.62 17.7065C102.976 17.7065 101.676 18.0867 100.682 18.847C99.6875 19.6073 99.1904 20.7097 99.1904 22.0782C99.1904 23.2947 99.611 24.2831 100.452 25.0053C101.293 25.7276 102.364 26.0697 103.626 26.0697C104.888 26.0697 106.035 25.5755 107.106 24.7012V25.7656H110.317V17.4404C110.279 15.8438 109.782 14.6274 108.788 13.7911ZM102.975 20.8236C103.358 20.5575 103.855 20.4435 104.543 20.4435C105.346 20.4435 106.187 20.5956 107.028 20.8997V22.1542C106.302 22.8004 105.346 23.1425 104.199 23.1425C103.625 23.1425 103.205 23.0285 102.899 22.7624C102.593 22.5343 102.44 22.2302 102.44 21.812C102.44 21.3939 102.593 21.0517 102.975 20.8236Z" fill="#0069FF"/>
<path fill-rule="evenodd" clip-rule="evenodd" d="M128.057 26.0314C122.819 26.0314 118.536 21.7737 118.536 16.5657C118.536 11.3578 122.819 7.1001 128.057 7.1001C133.296 7.1001 137.578 11.3578 137.578 16.5657C137.578 21.7737 133.334 26.0314 128.057 26.0314ZM128.056 10.4076C124.653 10.4076 121.9 13.1446 121.9 16.5279C121.9 19.9112 124.653 22.6483 128.056 22.6483C131.459 22.6483 134.212 19.9112 134.212 16.5279C134.212 13.1446 131.459 10.4076 128.056 10.4076Z" fill="#0069FF"/>
</g>
<defs>
<clipPath id="clip0_819_2409">
<rect width="191" height="32" fill="white"/>
</clipPath>
</defs>
</svg>
